PathFileType	4	(X/Y/Z)	Patient4_TMGait_0pt7_02_left_39.trc.trc
DataRate	CameraRate	NumFrames	NumMarkers	Units	OrigDataRate	OrigDataStartFrame	OrigNumFrames
83.832335329341	83.832335329341	6	33	mm	83.832335329341	106	       141
Frame#	Time	Sacral			L.Shoulder			Chest			R.Shoulder			Neck			R.ASIS			L.ASIS			R.Thigh.Superior			R.Thigh.Lateral			R.Thigh.Inferior			R.Patella			L.Thigh.Superior			L.Thigh.Lateral			L.Thigh.Inferior			L.Patella			L.Shank.Superior			L.Shank.Lateral			L.Shank.Inferior			R.Shank.Superior			R.Shank.Lateral			R.Shank.Inferior			R.Heel			R.Midfoot.Superior			R.Midfoot.Lateral			R.Toe			L.Heel			L.Midfoot.Lateral			L.Midfoot.Superior			L.Toe			L.Elbow			L.Wrist			R.Elbow			R.Wrist			
		X1	Y1	Z1	X2	Y2	Z2	X3	Y3	Z3	X4	Y4	Z4	X5	Y5	Z5	X6	Y6	Z6	X7	Y7	Z7	X8	Y8	Z8	X9	Y9	Z9	X10	Y10	Z10	X11	Y11	Z11	X12	Y12	Z12	X13	Y13	Z13	X14	Y14	Z14	X15	Y15	Z15	X16	Y16	Z16	X17	Y17	Z17	X18	Y18	Z18	X19	Y19	Z19	X20	Y20	Z20	X21	Y21	Z21	X22	Y22	Z22	X23	Y23	Z23	X24	Y24	Z24	X25	Y25	Z25	X26	Y26	Z26	X27	Y27	Z27	X28	Y28	Z28	X29	Y29	Z29	X30	Y30	Z30	X31	Y31	Z31	X32	Y32	Z32	X33	Y33	Z33	

106	45.872500000000	725.960321778266	1016.105231365450	556.981041356536	921.931632797417	1433.850934340426	370.546464473042	1038.238362224302	1349.765929915203	515.974168956772	986.513803095006	1430.151619336182	698.982566744885	950.655155152014	1489.469442405504	523.126727737158	955.772562199730	941.123889724191	659.513491292381	926.246301204441	960.718746788449	387.052590426195	985.223211011535	740.185894337641	631.485888426590	900.827416988677	632.250345176038	687.084508586794	979.396512139248	580.183480226039	608.269526959424	976.569138217187	490.136767420819	613.485719196439	1022.150336336430	812.299916644584	403.494114347468	997.024893275459	687.261718996306	311.267694590975	1115.987846807263	641.300948558359	361.017312266987	1145.363991276876	555.226747176810	345.206088945318	1091.470015301302	476.854434481341	343.736026051802	956.519251305871	408.240460608352	307.855248673946	975.040039055187	279.200561503831	360.999347108418	942.002099914919	403.190910766522	615.472994548073	860.895358281312	300.862718829400	667.513597855142	904.249660887547	207.005546845163	602.862461346103	765.701702866070	43.580353287459	558.172101244647	938.516280765826	98.836909006592	602.120278046021	847.402229430601	36.369323292594	634.207691068121	1055.625123994500	45.013264064767	628.861368950866	805.935762895418	175.590238329879	414.082424643529	864.065295794428	144.661793505273	327.540596348889	966.352458025307	175.353620916575	339.879436971292	1063.541609835493	82.767874277200	301.400041767156	777.016766368399	1110.388909892944	271.611060001459	755.629941937859	849.505835756026	270.814637846406	1098.305152159068	1104.538397123964	816.506237478178	1324.400579554587	991.612989841497	751.488777636687	
107	45.884428571429	724.723926716947	1016.389677543093	557.513118346210	920.739407683248	1433.833603601339	370.984615188496	1037.308710830995	1349.466825729817	516.001010003143	986.294859632102	1430.041659222870	699.129466409650	950.048007814980	1489.316971419673	523.470285949635	954.392012068675	941.173735796023	659.833660358174	924.750527595024	960.405038043222	387.347153589641	981.574403071647	739.459994675918	631.087041797295	896.238657028116	632.268615736729	687.374978949735	973.654351745078	579.336490975019	608.214754630834	969.646411258962	489.551976019627	613.288114736478	1020.571182296060	813.192079255218	404.147133802165	996.657948007570	687.911378091963	311.731054466575	1115.731266869600	643.165916426737	361.811829160363	1146.609926362221	558.479676123186	346.027996321826	1095.969095265498	479.035294565026	343.853261356657	964.993189868700	403.942547204212	306.729530272857	990.028934423019	275.370540093417	359.047289081401	934.925983328083	402.840230188031	615.505048321877	853.472967625861	300.810480117763	667.628847358382	896.331082284302	206.795553908236	602.843334430672	757.332981389480	43.586408992145	558.227437044297	930.066580263695	98.705314269110	602.010673426912	838.988296415954	36.398283197119	634.335131856770	1047.200439100459	44.884623562967	628.843103996307	826.482858862998	162.956470459491	410.740953008840	886.309489758242	135.538701452696	324.262510546259	986.891775937455	171.084602526857	337.225070934282	1088.641508675830	83.507274504139	298.607824115244	769.527643400417	1113.458492968424	273.343161329155	737.365625965886	853.905938798707	275.147104047208	1104.989580836869	1107.773132040143	815.428223609880	1336.727817387570	1011.222089362759	745.364226364410	
108	45.896357142857	723.566233593872	1016.668580555674	557.939765416428	919.692972409414	1433.764093057212	371.271419906968	1036.473137074540	1349.106275978771	515.911890123491	986.118216950680	1429.877329790601	699.134206226075	949.550882541677	1489.114272244612	523.688373702926	953.075496364641	941.147833234316	660.009825487952	923.282287359254	960.001931305720	387.495369741309	978.025587968952	738.724573317873	630.659320702910	891.682897622033	632.288921686422	687.600323683005	967.961598834172	578.480420115415	608.156163894064	962.780435793679	488.979318661519	613.095706398137	1018.715605011687	813.532067807084	404.750494122671	995.708521419419	687.957437229261	312.304406791350	1114.735829451356	644.157685852416	362.762442831401	1146.941412298487	560.947006836311	347.114327816539	1099.626646265333	480.678949135564	344.258471359672	973.206020795610	399.235933340525	305.507405303147	1004.667294568973	271.517547686875	357.193829718747	927.892850299659	402.511739679683	615.537301598242	846.065803698739	300.794132218051	667.736990269857	888.423377766146	206.604962679951	602.839724035058	748.962870712472	43.623861123286	558.305838602256	921.598194871489	98.547172015713	601.877856303015	830.572335482891	36.428166634680	634.471721484317	1038.777180646649	44.734484688572	628.822862349419	847.121881082552	150.457010026731	407.039243190366	908.784362151080	126.677927088998	320.868509806431	1007.300238848084	167.075067935606	334.755010163625	1113.518248563306	84.839198279386	296.456449196182	762.393924397098	1116.565248445432	274.938004751875	720.542716724474	858.607640103530	279.460541607013	1110.980084952321	1110.838521905168	814.092014578784	1347.093368455960	1030.983389294516	739.174031456352	
109	45.908285714286	722.508113553900	1016.937437473536	558.253540603781	918.796303641912	1433.652190042942	371.400133824877	1035.729746548689	1348.697507766256	515.703973901106	985.983107196579	1429.666477232886	698.991208045176	949.161851318249	1488.876974843903	523.786183760914	951.834251338405	941.069997036090	660.050509915922	921.865524465459	959.527181141501	387.490737665279	974.588727120354	737.989018334750	630.260874371851	887.144795466960	632.321811041269	687.768230012814	962.321608403711	577.623714161463	608.125406639450	955.979014049247	488.425570453124	612.939299090824	1016.631383466775	813.338126115753	405.278770018455	994.203692846537	687.407459274600	312.953173092404	1113.034934342702	644.259218334820	363.819708874642	1146.375989029008	562.604952085344	348.436424695528	1102.431433264375	481.774728837224	344.957883976816	981.122407118539	394.176859696954	304.207868676284	1018.838736959330	267.712235649222	355.512299389910	920.907504064680	402.212719340775	615.580982682717	838.667799668273	300.824662416287	667.840361020054	880.526938040994	206.444830480616	602.862008348560	740.586358229700	43.699876087873	558.399997233557	913.117394210979	98.367933230650	601.730506204779	822.156932915127	36.457701062477	634.607954882665	1030.359320120588	44.564379723381	628.804005062881	867.679484356005	138.265197143288	403.070475698562	931.325981909852	118.188016546068	317.479986831704	1027.417982792169	163.395971502901	332.577880024057	1137.972468769216	86.790262046797	295.127975369148	755.618332733766	1119.696707824364	276.403160039491	705.148991667644	863.474093290722	283.704889138487	1116.310543364655	1113.689889528573	812.492126508608	1355.515999389382	1050.663366112167	732.986797970038	
110	45.920214285714	721.569425918942	1017.184355231718	558.438921008452	918.046121226686	1433.505724595130	371.366226315843	1035.073134117652	1348.252346791843	515.375477192139	985.884086322755	1429.415291179963	698.696387207735	948.869708243505	1488.616794956987	523.766687451862	950.681125879464	940.960090456403	659.965288226460	920.534034401066	958.993431787287	387.327798369078	971.273528070074	737.256884890864	629.935523596561	882.613578120278	632.374315442884	687.881041657480	956.735798271391	576.773828001892	608.140783108037	949.249028783666	487.893054678110	612.836914521042	1014.374511096133	812.627572588063	405.703259004066	992.175212873041	686.274355003752	313.637877051342	1110.666023630762	643.463579541882	364.934276246282	1144.935823621544	563.438785875091	349.958249159722	1104.369569835498	482.313298782214	345.934565276047	988.659219255797	388.820371394555	302.885590749083	1032.402481672890	264.002004214933	354.072869171812	913.971866585112	401.945471688409	615.636885972819	831.276351461074	300.908755227286	667.937698441794	872.642497430406	206.322480700976	602.914206980182	732.201532216854	43.818091414330	558.503720193753	904.632090332927	98.175820184505	601.578918406939	813.745158554386	36.486423971591	634.735632869063	1021.950788510507	44.376515962238	628.789134643447	887.956134713142	126.524363703980	398.997165098752	953.703264690253	110.143507499410	314.247185648328	1047.043045614843	160.080271632535	330.781383215703	1161.751089644999	89.327827142790	294.708768389810	749.210221895996	1122.834141245044	277.738285226346	691.169250579128	868.381440230488	287.832843098311	1121.016893506909	1116.293532787466	810.636533341589	1362.049298201008	1070.026702498951	726.867853302540	
111	45.932142857143	720.768037300469	1017.390667075817	558.472526848498	917.431246867098	1433.329137799553	371.167807143727	1034.494312256923	1347.781235112479	514.925444121436	985.809493676818	1429.128034011232	698.248173244902	948.653527238694	1488.339604160493	523.628560863288	949.631252269912	940.831290096887	659.762523746330	919.329860283617	958.407189886212	387.002513713815	968.088391284698	736.525168676237	629.707920373307	878.085133298515	632.449115887806	687.936049654663	951.205612759045	575.935632105552	608.206577449989	942.597350014882	487.378992377245	612.794103947554	1012.006559594067	811.415612230715	405.995302696250	989.659919537608	684.576162653061	314.319333975031	1107.671837227838	641.777906809258	366.062409588142	1142.651185175071	563.444782256967	351.637120061337	1105.427039820116	482.286186828014	347.147675057075	995.683342422032	383.218510945534	301.632550718297	1045.193177628912	260.409647907689	352.939935754875	907.085532766128	401.707402270721	615.697264433933	823.892729609996	301.048231758687	668.024654825596	864.771540380953	206.240517702024	602.994326527632	723.809151452108	43.978128404917	558.613084753197	896.151047724808	97.981339464322	601.434675116321	805.339738548215	36.514609245979	634.849461778759	1013.554703987438	44.173489372876	628.780014415380	907.722858203257	115.348800816371	395.050687936302	975.610634725464	102.585380693161	311.344311386521	1065.928609375655	157.120736796844	329.427906191493	1184.543320277220	92.354656176493	295.174609828576	743.186082521038	1125.949282714162	278.935471953734	678.589766175915	873.215323872784	291.799322732932	1125.132956879015	1118.626405533621	808.547676141216	1366.779058115681	1088.845095954347	720.877860351313	
